PathFileType	4	(X/Y/Z)	C:/Users/opensim2020/Desktop/walking_exp_matlab/subject01_walking10_straight_03.trc																																																																																																																															
DataRate	CameraRate	NumFrames	NumMarkers	Units	OrigDataRate	OrigDataStartFrame	OrigNumFrames																																																																																																																											
100	100	7	43	mm	100	2889	317																																																																																																																											
Frame#	Time	LFHD			RFHD			LBHD			RBHD			C7			T10			CLAV			STRN			RBAK			LSHO			LUPA			LELB			LFRM			LWRA			LWRB			LFIN			RSHO			RUPA			RELB			RFRM			RWRA			RWRB			RFIN			LASI			RASI			LPSI			RPSI			LTHI			LKNE			LTIB			LANK			LHEE			LTOE			RTHI			RKNE			RTIB			RANK			RHEE			RTOE			*39			*40			*41			*42		
		X1	Y1	Z1	X2	Y2	Z2	X3	Y3	Z3	X4	Y4	Z4	X5	Y5	Z5	X6	Y6	Z6	X7	Y7	Z7	X8	Y8	Z8	X9	Y9	Z9	X10	Y10	Z10	X11	Y11	Z11	X12	Y12	Z12	X13	Y13	Z13	X14	Y14	Z14	X15	Y15	Z15	X16	Y16	Z16	X17	Y17	Z17	X18	Y18	Z18	X19	Y19	Z19	X20	Y20	Z20	X21	Y21	Z21	X22	Y22	Z22	X23	Y23	Z23	X24	Y24	Z24	X25	Y25	Z25	X26	Y26	Z26	X27	Y27	Z27	X28	Y28	Z28	X29	Y29	Z29	X30	Y30	Z30	X31	Y31	Z31	X32	Y32	Z32	X33	Y33	Z33	X34	Y34	Z34	X35	Y35	Z35	X36	Y36	Z36	X37	Y37	Z37	X38	Y38	Z38	X39	Y39	Z39	X40	Y40	Z40	X41	Y41	Z41	X42	Y42	Z42	X43	Y43	Z43
																																																																																																																																		
40	0.39	-667.18365	1663.53674	1459.36108	-637.99768	1669.65552	1569.30786	-771.5531	1598.30005	1482.92065	-742.66418	1603.13489	1599.74463	-778.49463	1413.5769	1502.74353	-808.97266	1121.65686	1503.88953	-633.72534	1349.83435	1501.62146	-588.49652	1195.04724	1487.50928	-830.12292	1214.80249	1567.40784	-690.52185	1384.41956	1341.2887	-694.75183	1201.99097	1249.28613	-677.94537	1049.09143	1240.89832	-596.23682	965.54474	1221.63806	-477.35477	898.48993	1246.29065	-522.04047	868.36517	1221.23853	-448.27881	828.91388	1213.80505	-700.87958	1367.37378	1654.15332	-775.26276	1165.97046	1737.52637	-780.18018	1042.94202	1737.63635	-765.14001	923.74463	1770.6156	-691.79205	801.70795	1762.51501	-740.92725	805.51489	1794.71484	-709.08746	726.67334	1798.50928	-654.12354	909.32117	1381.86829	-623.28467	921.98981	1594.41565	-831.14716	927.06085	1460.54675	-809.01257	931.72992	1604.99451	-732.25757	578.06708	1342.7699	-765.49847	445.84409	1359.28394	-873.99316	288.93781	1360.6438	-968.0799	91.81106	1418.84399	-1013.5675	72.23584	1477.61963	-838.45654	28.77344	1390.63525	-597.14679	602.60339	1665.55469	-542.69305	455.72736	1634.4231	-555.36011	280.15872	1648.83643	-539.81433	73.14217	1607.87659	-586.40179	30.48172	1560.18066	-398.79193	46.01345	1602.95862	-658.86877	1700.97791	1550.52747	1973.13293	1023.47589	-3101.98804	2012.55627	1021.97083	-3140.66138	NaN	NaN	NaN
41	0.4	-660.66919	1663.97314	1461.21021	-630.98914	1670.24414	1570.99048	-764.52332	1598.73376	1484.79907	-735.62585	1603.72241	1601.58911	-771.64459	1413.8678	1504.44714	-801.31525	1121.98865	1505.3595	-626.52734	1350.60168	1503.41089	-581.00806	1195.9386	1489.23767	-822.76978	1215.13525	1568.99207	-683.35248	1385.06091	1343.06335	-688.26886	1202.62439	1251.32336	-671.94788	1049.77087	1242.85962	-591.11023	965.65546	1223.36938	-472.96628	897.24304	1247.22314	-518.12408	867.4646	1222.66333	-444.75348	827.42474	1214.68188	-693.96167	1367.99609	1655.95361	-767.56915	1166.13123	1738.88672	-772.05518	1043.12598	1738.87195	-756.44781	923.97791	1771.60242	-682.40796	802.3338	1763.42749	-731.68085	805.86053	1795.48828	-699.38177	727.08594	1799.13074	-645.81073	909.96954	1383.42773	-615.42242	922.81689	1596.14233	-822.69708	927.54608	1461.55811	-801.19452	932.82678	1605.81335	-723.46228	578.55243	1343.23401	-756.57239	446.29303	1359.46289	-867.63342	291.32419	1360.52356	-965.91498	96.25388	1418.34412	-1011.48456	77.59889	1476.98828	-838.18585	28.86838	1390.63037	-589.75018	602.67072	1666.24426	-536.07776	455.28207	1635.20337	-550.79663	279.61264	1649.43896	-538.17444	72.86417	1607.9552	-585.55945	31.23473	1560.52783	-397.56161	43.66446	1602.60632	-651.9696	1701.51672	1552.26611	1973.18726	1023.34351	-3101.90845	2012.55151	1022.1087	-3140.70776	NaN	NaN	NaN
42	0.41	-653.77588	1664.63586	1462.90186	-624.0166	1670.95825	1572.6449	-757.74908	1599.50781	1486.6543	-728.58868	1604.43201	1603.396	-764.7926	1414.27161	1506.198	-793.66461	1122.41174	1506.78735	-619.38629	1351.45032	1505.24194	-573.52759	1196.89709	1490.98547	-815.35065	1215.50586	1570.67151	-676.26654	1385.92761	1344.92822	-681.84344	1203.40552	1253.22058	-666.11401	1050.57849	1244.82886	-586.17578	965.71039	1225.09802	-468.7822	895.72748	1247.92297	-514.59967	866.56049	1224.42017	-441.39417	825.64734	1215.7384	-687.04956	1368.81958	1657.71936	-759.80194	1166.46619	1740.31787	-763.89691	1043.54736	1740.078	-747.68933	924.43317	1772.65735	-672.92102	803.17279	1764.34155	-722.19098	806.41638	1796.39844	-689.6391	727.73254	1799.95081	-636.92908	910.85449	1385.36438	-607.48505	923.68658	1598.22205	-814.2738	928.15479	1462.65369	-793.22748	933.42896	1607.18176	-714.26398	579.08472	1343.90271	-747.15729	446.90521	1359.47961	-860.97906	293.84494	1360.21057	-963.1532	100.6245	1417.52478	-1009.17145	83.42548	1476.15906	-838.01648	29.16772	1390.72412	-584.96722	600.56812	1664.86694	-530.03668	454.37814	1635.81921	-546.70898	279.07986	1650.1322	-537.0271	72.59858	1607.98169	-584.85272	31.52339	1560.35657	-396.65457	41.7505	1602.95593	-645.112	1702.14026	1553.94092	1973.05066	1023.39777	-3101.99219	2012.50134	1022.1037	-3140.70215	NaN	NaN	NaN
43	0.42	-646.87665	1665.37036	1464.60559	-617.01898	1671.72791	1574.27148	-750.74646	1600.19116	1488.47156	-721.60175	1605.24268	1605.17261	-757.87341	1414.79956	1507.96704	-786.04333	1122.9248	1508.21326	-612.31409	1352.36951	1507.00134	-566.0979	1197.92798	1492.7439	-807.90613	1215.97302	1572.35278	-669.29993	1386.73425	1346.74866	-675.28082	1204.19287	1255.08777	-660.4718	1051.43396	1246.95801	-581.57617	965.70227	1226.8219	-464.82465	894.38861	1248.88257	-511.31049	865.58221	1225.9624	-438.49768	823.80615	1216.81592	-680.02557	1369.75964	1659.48669	-752.02936	1167.026	1741.91394	-755.74811	1044.1134	1741.45471	-738.96753	925.01007	1773.74158	-663.38147	804.18597	1765.31445	-712.59515	807.13989	1797.15381	-679.70508	728.4986	1800.66699	-628.07776	911.95483	1387.55042	-599.62964	924.53552	1600.43201	-805.87756	928.80493	1463.78931	-785.31	934.07214	1608.41052	-704.68506	579.6795	1344.47839	-737.02875	447.18808	1359.5144	-853.68286	296.36911	1359.83533	-959.96802	105.39445	1416.55334	-1006.36591	89.81528	1475.18188	-837.45361	29.06778	1390.72363	-577.49274	600.64606	1665.76501	-524.16022	453.92749	1636.92603	-543.19452	278.51047	1650.6842	-536.12836	72.39202	1607.99854	-583.96588	31.2638	1560.21057	-395.8938	40.36156	1603.22876	-638.03033	1702.94458	1555.60547	1972.98169	1023.88464	-3102.11792	2012.47302	1021.94678	-3140.70679	NaN	NaN	NaN
44	0.43	-639.95575	1666.18542	1466.15234	-610.07629	1672.5127	1575.87109	-743.99298	1601.08911	1490.17468	-714.61774	1606.12878	1606.88757	-750.94379	1415.43896	1509.80713	-778.50427	1123.45911	1509.67456	-605.2403	1353.37341	1508.72961	-558.68091	1199.04871	1494.547	-800.40741	1216.45581	1574.11536	-662.42255	1387.62158	1348.59595	-668.60089	1205.10034	1256.81152	-655.08319	1052.23901	1249.04797	-577.17932	965.59412	1228.60754	-461.13498	892.93958	1249.78906	-508.14896	864.55377	1227.52258	-435.94315	821.76324	1217.94885	-672.95929	1370.69592	1661.25146	-744.20624	1167.71802	1743.63184	-747.60352	1044.78369	1742.87512	-730.12421	925.71442	1774.96399	-653.76715	805.30408	1766.31226	-703.17065	807.89166	1798.14807	-669.63007	729.33948	1801.422	-619.85004	912.98303	1389.48584	-591.58746	925.40619	1602.80591	-797.55634	929.50867	1465.02808	-777.4397	934.47217	1609.7688	-694.64117	580.28064	1345.15393	-726.27136	447.65811	1359.22925	-845.83942	299.10406	1359.33069	-956.18585	110.2495	1415.44556	-1003.11255	96.76653	1474.17383	-836.8894	29.03354	1390.78882	-570.64075	600.88635	1666.91174	-519.09924	453.40866	1637.94153	-539.94672	278.15836	1651.31335	-535.33447	72.27848	1608.02759	-583.70734	31.50466	1560.2677	-395.1814	39.35711	1603.08813	-631.00403	1703.79651	1557.19092	1973.0061	1023.56775	-3101.99414	2012.39697	1021.95508	-3140.76001	NaN	NaN	NaN
45	0.44	-633.15546	1666.95532	1467.75635	-603.11462	1673.35437	1577.35742	-737.047	1601.88708	1491.9071	-707.67517	1607.04285	1608.56152	-744.00372	1416.09058	1511.64294	-770.98987	1124.07068	1511.21594	-598.23218	1354.38391	1510.47656	-551.35577	1200.17883	1496.26453	-792.94977	1217.05591	1576.02063	-655.64716	1388.51428	1350.43726	-662.06659	1206.00195	1258.44617	-649.62555	1052.80676	1251.20349	-572.98517	965.43494	1230.37683	-457.66418	891.42523	1250.75586	-505.23193	863.4895	1229.07642	-433.50412	819.82898	1219.10132	-665.89319	1371.69373	1662.93201	-736.36676	1168.57214	1745.53284	-739.41577	1045.51709	1744.42212	-721.27051	926.45703	1776.22009	-644.08197	806.54254	1767.31494	-693.37927	808.8811	1799.33655	-659.47223	730.37756	1802.2334	-611.71271	914.12872	1391.53516	-583.99396	926.21979	1604.93774	-789.39624	930.22937	1466.33459	-769.94958	935.08923	1611.20874	-684.19043	580.80743	1345.78162	-715.16473	448.26007	1359.00964	-837.23242	301.88135	1358.8075	-952.04895	115.84925	1414.42896	-999.01251	104.15781	1473.08435	-836.6062	29.31371	1390.67017	-564.54425	601.10754	1668.17603	-514.41956	453.07016	1638.94434	-536.95892	277.81708	1651.87134	-534.71051	72.16193	1607.97864	-583.56427	31.6871	1560.39368	-394.54984	38.46903	1602.73218	-624.18152	1704.64526	1558.69727	1973.10217	1023.52405	-3101.89697	2012.41577	1021.95093	-3140.81787	NaN	NaN	NaN
46	0.45	-626.49573	1667.69995	1469.16052	-596.24695	1674.23804	1578.80249	-730.36823	1602.86865	1493.53442	-700.76581	1608.06262	1610.18176	-737.06207	1416.70984	1513.39392	-763.52545	1124.69592	1512.82227	-591.18475	1355.41089	1512.14307	-543.99445	1201.2937	1498.04578	-785.4859	1217.6416	1578.01355	-648.86243	1389.35327	1352.18884	-655.33899	1206.93555	1260.01074	-644.55939	1053.58142	1253.30725	-569.03778	965.16144	1232.14624	-454.46277	889.85699	1251.80713	-502.44946	862.34137	1230.6394	-431.42676	817.77802	1220.29785	-658.7309	1372.73926	1664.64905	-728.46936	1169.48535	1747.60205	-731.27496	1046.25757	1746.05994	-712.35242	927.19415	1777.57678	-634.25476	807.82996	1768.3114	-683.44843	809.81818	1800.28882	-649.03088	731.40778	1802.92603	-603.51074	915.3175	1393.70264	-576.39484	927.13556	1607.05676	-781.43915	930.97552	1467.69019	-762.15027	935.56378	1612.56213	-673.17151	581.29089	1346.24377	-703.00977	448.59857	1358.72314	-828.04645	304.93637	1358.25623	-947.19781	121.47459	1413.23975	-994.05682	111.96073	1472.08643	-835.67157	29.55398	1390.81592	-556.18127	603.30151	1671.37195	-510.0556	452.79294	1639.96814	-534.24298	277.47925	1652.42041	-534.25818	72.17037	1608.04163	-583.25549	31.53073	1560.26514	-394.06229	37.95678	1602.6394	-617.16321	1705.54407	1560.19006	1973.00134	1023.94885	-3101.9939	2012.51953	1021.96246	-3140.53271	NaN	NaN	NaN
